<?xml version="1.0" standalone="no"?>
<!DOCTYPE svg PUBLIC "-//W3C//DTD SVG 20010904//EN"
 "http://www.w3.org/TR/2001/REC-SVG-20010904/DTD/svg10.dtd">
<svg version="1.0" xmlns="http://www.w3.org/2000/svg"
 width="346.000000pt" height="600.000000pt" viewBox="0 0 346.000000 600.000000"
 preserveAspectRatio="xMidYMid meet">
<g transform="translate(0.000000,600.000000) scale(0.100000,-0.100000)"
fill="#000000" stroke="none">
<path d="M806 5903 c39 -704 249 -1327 599 -1784 123 -159 347 -366 525 -483
340 -226 718 -356 1220 -420 193 -25 310 -30 310 -13 0 11 -27 15 -122 20
-295 14 -674 91 -911 183 -781 306 -1270 886 -1491 1769 -54 215 -106 586
-106 753 0 57 -3 72 -15 72 -12 0 -14 -16 -9 -97z"/>
<path d="M430 3056 c0 -34 -2 -36 -25 -30 -34 9 -55 -11 -55 -52 0 -41 38 -67
65 -44 11 9 15 10 15 0 0 -6 5 -10 11 -8 16 5 17 160 1 166 -8 2 -12 -8 -12
-32z m-16 -52 c20 -8 21 -38 1 -54 -12 -10 -18 -10 -30 0 -18 15 -20 46 -2 53
6 3 13 6 14 6 1 1 8 -2 17 -5z"/>
<path d="M566 3083 c-3 -3 -6 -18 -6 -33 0 -24 -3 -27 -25 -22 -34 6 -55 -14
-55 -54 0 -39 19 -53 73 -51 l37 1 0 77 c0 72 -8 98 -24 82z m-22 -79 c23 -9
20 -51 -3 -57 -34 -8 -53 27 -29 51 14 14 12 14 32 6z"/>
<path d="M790 3004 c0 -64 3 -85 13 -82 8 3 13 32 15 86 2 68 0 82 -13 82 -12
0 -15 -15 -15 -86z"/>
<path d="M849 3086 c-8 -8 3 -166 12 -166 5 0 9 38 9 85 0 74 -6 96 -21 81z"/>
<path d="M241 3058 c-5 -13 -20 -47 -34 -76 -14 -28 -21 -54 -16 -58 13 -7 29
4 29 22 0 24 65 18 83 -8 29 -45 29 -7 0 64 -34 79 -48 92 -62 56z m29 -32 c0
-8 3 -21 6 -30 4 -12 0 -16 -15 -16 -23 0 -24 3 -15 38 7 24 24 30 24 8z"/>
<path d="M970 3047 c0 -9 -6 -18 -12 -21 -10 -5 -10 -7 0 -12 6 -3 12 -20 12
-38 0 -33 15 -56 37 -56 7 0 13 7 13 15 0 8 -7 15 -15 15 -10 0 -15 10 -15 30
0 23 4 30 20 30 11 0 20 5 20 10 0 6 -9 10 -20 10 -11 0 -19 5 -17 11 1 6 -4
14 -10 16 -7 3 -13 -2 -13 -10z"/>
<path d="M1538 3042 c-4 -14 -14 -18 -47 -16 l-41 2 0 -54 c0 -41 4 -54 15
-54 11 0 15 11 15 39 0 26 5 41 16 45 34 13 44 6 44 -28 0 -37 21 -62 45 -52
21 8 19 23 -3 28 -22 6 -23 53 -2 53 7 0 15 6 18 13 2 6 -4 12 -12 12 -9 0
-19 7 -22 15 -8 20 -21 19 -26 -3z"/>
<path d="M682 3023 c-23 -9 -1 -22 28 -16 17 3 30 1 30 -4 0 -6 -14 -13 -30
-17 -62 -12 -45 -69 19 -63 35 4 36 5 35 47 -2 53 -32 73 -82 53z m58 -62 c0
-6 -5 -13 -10 -16 -15 -9 -43 3 -35 15 8 13 45 13 45 1z"/>
<path d="M1058 3019 c-22 -13 -24 -62 -2 -83 20 -20 43 -20 72 0 58 41 -8 120
-70 83z m46 -15 c21 -8 20 -50 -1 -58 -24 -10 -46 21 -32 45 11 21 11 21 33
13z"/>
<path d="M1247 3012 c-24 -26 -21 -59 8 -78 27 -18 56 -16 63 5 3 10 -1 12
-17 8 -30 -8 -54 18 -41 44 8 14 17 18 37 13 19 -5 24 -3 21 7 -7 22 -52 22
-71 1z"/>
<path d="M1347 3023 c-15 -15 -5 -22 23 -16 17 3 30 1 30 -4 0 -6 -14 -13 -30
-17 -62 -12 -45 -69 19 -63 36 4 36 4 32 48 -1 24 -5 47 -8 52 -5 9 -57 9 -66
0z m53 -62 c0 -6 -5 -13 -10 -16 -15 -9 -43 3 -35 15 8 13 45 13 45 1z"/>
<path d="M3270 2838 c-491 -32 -1019 -209 -1390 -467 -455 -316 -792 -838
-964 -1491 -50 -190 -96 -514 -111 -772 -5 -89 -3 -108 8 -108 11 0 16 31 20
148 4 81 9 167 12 192 38 299 57 399 106 575 16 61 34 127 40 148 5 20 25 79
45 130 249 642 615 1065 1158 1339 330 167 823 285 1199 288 50 0 67 3 67 14
0 15 -9 15 -190 4z"/>
</g>
</svg>
