<svg version="1.0" xmlns="http://www.w3.org/2000/svg" width="600.000000pt" height="571.000000pt" viewBox="0 0 600.000000 571.000000" preserveAspectRatio="xMidYMid meet" style="width: 497.28px; height: auto;"> <g transform="translate(0.000000,571.000000) scale(0.100000,-0.100000)" fill="#000000" stroke="none" class=""> <path d="M2906 5063 c-39 -384 -223 -826 -484 -1162 -88 -114 -277 -307 -382 -391 -382 -304 -911 -503 -1367 -513 -89 -1 -113 -5 -113 -16 0 -26 312 2 510 45 263 58 592 197 802 337 470 315 832 805 982 1332 52 183 92 435 69 435 -6 0 -13 -30 -17 -67z"></path> <path d="M3375 5058 c27 -281 154 -649 320 -927 160 -267 425 -553 680 -732 288 -202 666 -351 1025 -403 143 -21 340 -32 340 -19 0 6 -47 13 -109 17 -355 21 -643 98 -955 253 -243 122 -440 266 -626 459 -354 368 -580 822 -646 1300 -19 134 -41 173 -29 52z" class=""></path>      <path d="M2810 2801 c0 -74 3 -91 15 -91 11 0 14 9 11 34 -6 40 14 72 38 63 11 -5 16 -19 16 -52 0 -34 4 -45 16 -45 12 0 14 9 10 46 -7 67 -41 95 -74 62 -9 -9 -11 -3 -9 26 1 24 -3 41 -10 43 -10 4 -13 -18 -13 -86z"></path> <path d="M3180 2800 c0 -76 2 -90 16 -90 13 0 15 6 9 28 l-7 27 29 -27 c40 -38 65 -36 28 2 l-29 30 29 30 c21 22 25 30 13 30 -9 0 -28 -14 -41 -32 l-25 -32 5 62 c5 53 3 62 -11 62 -14 0 -16 -13 -16 -90z"></path> <path d="M2685 2855 c-32 -31 -34 -96 -5 -125 24 -24 100 -29 100 -7 0 9 -10 12 -30 9 -62 -9 -94 64 -49 109 17 17 28 20 57 14 32 -6 34 -5 23 9 -20 24 -68 20 -96 -9z"></path> <path d="M3580 2846 c0 -8 -6 -17 -12 -19 -10 -4 -10 -7 -1 -14 6 -5 13 -29 15 -53 3 -41 6 -45 31 -48 15 -2 27 1 27 7 0 6 -9 11 -20 11 -17 0 -20 7 -20 39 0 33 4 40 23 44 l22 4 -22 8 c-13 4 -19 13 -16 21 3 8 -1 14 -11 14 -9 0 -16 -6 -16 -14z"></path> <path d="M2956 2808 c-35 -49 -11 -102 44 -96 46 4 49 23 3 23 -26 0 -39 5 -41 15 -2 12 6 14 43 12 33 -3 45 0 45 10 0 25 -31 58 -55 58 -13 0 -31 -10 -39 -22z m62 -15 c2 -9 -7 -13 -28 -13 -28 0 -31 2 -20 15 15 18 41 16 48 -2z"></path> <path d="M3081 2804 c-25 -32 -26 -42 -5 -72 12 -17 24 -22 47 -20 17 2 32 8 34 14 2 7 -8 9 -26 6 -39 -5 -57 24 -34 57 11 17 21 21 40 16 18 -4 24 -2 21 7 -9 25 -54 21 -77 -8z"></path> <path d="M3319 2817 c-47 -36 -24 -107 34 -107 41 0 57 15 57 55 0 53 -52 82 -91 52z m61 -21 c6 -8 10 -25 8 -38 -2 -18 -9 -23 -33 -23 -26 0 -30 4 -33 29 -5 41 32 62 58 32z"></path> <path d="M3440 2783 c0 -64 8 -73 58 -71 l42 1 0 59 c0 69 -18 78 -22 11 -3 -44 -5 -48 -28 -48 -23 0 -25 4 -28 48 -2 26 -7 47 -13 47 -5 0 -9 -21 -9 -47z"></path> <path d="M560 2554 c0 -11 20 -14 93 -14 374 0 853 -152 1202 -380 451 -296 805 -764 964 -1274 35 -113 76 -308 87 -409 4 -42 11 -67 19 -67 9 0 10 15 3 62 -54 397 -165 697 -374 1013 -183 278 -429 527 -679 687 -226 146 -472 254 -725 319 -212 54 -590 95 -590 63z"></path> <path d="M5588 2559 c-423 -24 -860 -175 -1208 -418 -327 -227 -595 -542 -779 -911 -118 -237 -203 -520 -227 -753 -11 -114 10 -74 29 52 73 504 304 959 677 1331 200 201 421 354 679 470 293 133 621 210 894 210 71 0 87 3 87 15 0 8 -3 14 -7 14 -5 -1 -70 -5 -145 -10z" class=""></path>  </g> </svg>