<?xml version="1.0" encoding="UTF-8"?>
<svg id="Layer_1" xmlns="http://www.w3.org/2000/svg" version="1.1" viewBox="0 0 26.49 17.99">
  <!-- Generator: Adobe Illustrator 30.0.0, SVG Export Plug-In . SVG Version: 2.1.1 Build 123)  -->
  <defs>
    <style>
      .st0 {
        fill: #444;
      }
    </style>
  </defs>
  <path class="st0" d="M26.25,8c-.1-.19-.2-.38-.3-.57C23.52,3.11,19.05.31,14.1.03c-.28-.02-.57-.02-.85-.02h0c-.28,0-.57,0-.85.02C7.44.31,2.97,3.1.55,7.43c-.1.19-.2.38-.3.57-.33.62-.33,1.36,0,1.98.1.19.2.38.3.57,2.43,4.33,6.89,7.13,11.85,7.41.28.02.57.02.85.02s.57,0,.85-.02c4.96-.29,9.42-3.08,11.85-7.41.1-.19.2-.38.3-.57.33-.62.33-1.36,0-1.98ZM12.45,1.02c.26-.01.53-.02.79-.02h0c.27,0,.53.01.79.03,3.08.17,5.95,1.41,8.19,3.4-2.3,1.93-5.16,3.07-8.17,3.24-.55.03-1.09.03-1.64,0-3-.18-5.86-1.32-8.16-3.24,2.24-1.99,5.11-3.23,8.19-3.4ZM25.36,9.53c-.09.18-.18.36-.28.53-2.25,4.04-6.42,6.64-11.04,6.9-.26.02-.53.02-.79.02s-.53,0-.79-.02c-4.62-.26-8.78-2.86-11.04-6.9-.1-.17-.19-.35-.29-.54-.09-.16-.13-.34-.13-.52,0-.19.05-.37.14-.54.09-.18.18-.36.28-.53.58-1.04,1.29-1.98,2.1-2.82,2.49,2.1,5.59,3.36,8.85,3.55.29.02.58.03.88.03.3,0,.59,0,.88-.03,3.26-.18,6.37-1.43,8.85-3.55.81.83,1.52,1.77,2.1,2.81.1.17.19.35.29.54.09.16.13.34.13.52,0,.19-.05.37-.14.54Z"/>
  <polygon class="st0" points="13.25 8.68 13.25 8.68 13.25 8.68 13.25 8.68"/>
</svg>