<svg xmlns="http://www.w3.org/2000/svg" width="24.009" height="18.593" viewBox="0 0 24.009 18.593">
  <path id="Path_1847" data-name="Path 1847" d="M23.379,4.363l-2.574-1.91A10.934,10.934,0,0,0,17.171.842a9.1,9.1,0,0,0-1.4-.2C15.584.63,15.41.63,15.222.63s-.362,0-.549.012a9.083,9.083,0,0,0-1.4.2A10.948,10.948,0,0,0,9.639,2.453L7.065,4.363a1.557,1.557,0,0,0,0,2.5c1.23.914,2.691,2,2.726,2.021a10.726,10.726,0,0,0,2.386,1.2A9.9,9.9,0,0,0,9.294,11.57L.2,18.322a.5.5,0,1,0,.6.8L9.89,12.373a8.891,8.891,0,0,1,5.336-1.764c.186,0,.36,0,.546-.013a9.807,9.807,0,0,0,4.883-1.711c.036-.022,1.5-1.107,2.726-2.021a1.557,1.557,0,0,0,0-2.5m-.594,1.7C21.6,6.943,20.2,7.984,20.1,8.055A8.773,8.773,0,0,1,15.7,9.6c-.146.009-.283.01-.427.01H15.17c-.145,0-.285,0-.446-.011a8.73,8.73,0,0,1-4.36-1.531c-.116-.083-1.518-1.124-2.705-2.006a.558.558,0,0,1,0-.895l2.55-1.891a9.808,9.808,0,0,1,3.276-1.456,8.107,8.107,0,0,1,1.252-.179c.146-.01.283-.01.428-.01h.108c.145,0,.285,0,.443.011a8.046,8.046,0,0,1,1.239.178,9.821,9.821,0,0,1,3.277,1.456l2.549,1.891a.558.558,0,0,1,0,.895" transform="translate(0 -0.63)" fill="#444"/>
</svg>
