<svg xmlns="http://www.w3.org/2000/svg" width="17.766" height="19.975" viewBox="0 0 17.766 19.975">
  <g id="Group_1850" data-name="Group 1850" transform="translate(-40.556 -0.003)">
    <path id="Path_1800" data-name="Path 1800" d="M49.383,11h.108c.146,0,.286,0,.446.011a8.73,8.73,0,0,1,4.36,1.531c.121.086,1.641,1.215,2.857,2.119a.415.415,0,0,1,0,.668l-2.7,2.005a9.841,9.841,0,0,1-3.277,1.456,8.225,8.225,0,0,1-1.251.179c-.146.009-.284.01-.429.01h-.107c-.146,0-.286,0-.443-.011a8.154,8.154,0,0,1-1.24-.178,9.841,9.841,0,0,1-3.277-1.456l-2.7-2.005a.415.415,0,0,1,0-.668c1.216-.9,2.736-2.033,2.839-2.107a8.766,8.766,0,0,1,4.393-1.544c.146-.01.283-.01.427-.01m.056-1c-.187,0-.362,0-.55.012a9.818,9.818,0,0,0-4.883,1.712c-.037.023-1.62,1.2-2.878,2.134a1.416,1.416,0,0,0,0,2.274l2.727,2.024a10.968,10.968,0,0,0,3.635,1.611,9.071,9.071,0,0,0,1.4.2c.188.012.363.012.55.012s.362,0,.55-.012a9.071,9.071,0,0,0,1.4-.2,10.968,10.968,0,0,0,3.635-1.611l2.727-2.024a1.416,1.416,0,0,0,0-2.274c-1.258-.935-2.841-2.111-2.878-2.134a9.818,9.818,0,0,0-4.883-1.712C49.8,10,49.626,10,49.439,10" fill="#444"/>
    <path id="Path_1801" data-name="Path 1801" d="M49.434,1a3.439,3.439,0,1,1-3.439,3.439A3.443,3.443,0,0,1,49.434,1m0-1a4.439,4.439,0,1,0,4.439,4.439A4.438,4.438,0,0,0,49.434,0" fill="#444"/>
  </g>
</svg>
