<svg xmlns="http://www.w3.org/2000/svg" width="31.24" height="19.981" viewBox="0 0 31.24 19.981">
  <path id="Path_1849" data-name="Path 1849" d="M138.854,8.854l-9.415-6.991a9.446,9.446,0,0,0-11.265,0l-9.415,6.991a1.416,1.416,0,0,0,0,2.274l9.415,6.991a9.45,9.45,0,0,0,11.265,0l9.415-6.991a1.416,1.416,0,0,0,0-2.274M118.77,2.666a8.446,8.446,0,0,1,10.073,0l3.556,2.64-3.259,2.42a8.9,8.9,0,0,1-10.671,0l-3.257-2.418Zm19.488,7.659-9.415,6.991a8.45,8.45,0,0,1-10.073,0l-9.415-6.991a.416.416,0,0,1,0-.668l5.019-3.727,3.5,2.6a9.886,9.886,0,0,0,11.863,0l3.5-2.6,5.02,3.728a.416.416,0,0,1,0,.668" transform="translate(-108.187)" fill="#444"/>
</svg>
