<svg xmlns="http://www.w3.org/2000/svg" xmlns:xlink="http://www.w3.org/1999/xlink" width="7.62" height="15.995" viewBox="0 0 7.62 15.995">
  <defs>
    <clipPath id="clip-path">
      <rect id="Rectangle_831" data-name="Rectangle 831" width="7.62" height="15.995" fill="none"/>
    </clipPath>
  </defs>
  <g id="Group_1808" data-name="Group 1808" transform="translate(0 0)">
    <g id="Group_1794" data-name="Group 1794" transform="translate(0 0)">
      <g id="Group_1794-2" data-name="Group 1794" transform="translate(0 0)" clip-path="url(#clip-path)">
        <path id="Path_1802" data-name="Path 1802" d="M3.18,6.928c.01,0,.01,0,.02-.01A5.486,5.486,0,0,0,5.98,4,8.556,8.556,0,0,0,6.62.778V.008C6.7,0,6.873,0,7.05,0s.5,0,.57.008v.77A9.605,9.605,0,0,1,6.9,4.4,6.459,6.459,0,0,1,3.617,7.827l.015-.007L3.6,7.835c-.124.058-.251.112-.381.163.13.051.257.105.381.163h0l.031.014-.015-.007A6.459,6.459,0,0,1,6.9,11.6a9.609,9.609,0,0,1,.722,3.618v.77c-.075.005-.392.008-.57.008s-.355,0-.43-.008v-.77A8.556,8.556,0,0,0,5.98,12,5.486,5.486,0,0,0,3.2,9.078c-.01-.01-.01-.01-.02-.01A7.456,7.456,0,0,0,0,8.438v-.88a7.456,7.456,0,0,0,3.18-.63" transform="translate(0 0)" fill="#444"/>
      </g>
    </g>
  </g>
</svg>
