<svg id="Group_1808" data-name="Group 1808" xmlns="http://www.w3.org/2000/svg" xmlns:xlink="http://www.w3.org/1999/xlink" width="7.62" height="15.995" viewBox="0 0 7.62 15.995">
  <defs>
    <clipPath id="clip-path">
      <rect id="Rectangle_831" data-name="Rectangle 831" width="7.62" height="15.995" fill="none"/>
    </clipPath>
  </defs>
  <g id="Group_1794" data-name="Group 1794" transform="translate(0 0)">
    <g id="Group_1794-2" data-name="Group 1794" clip-path="url(#clip-path)">
      <path id="Path_1802" data-name="Path 1802" d="M4.44,6.928c-.01,0-.01,0-.02-.01A5.486,5.486,0,0,1,1.64,4,8.556,8.556,0,0,1,1,.778V.008C.925,0,.747,0,.57,0S.075,0,0,.008v.77A9.605,9.605,0,0,0,.722,4.4,6.459,6.459,0,0,0,4,7.827L3.988,7.82l.031.015c.124.058.251.112.381.163-.13.051-.257.105-.381.163h0l-.031.014L4,8.169A6.459,6.459,0,0,0,.722,11.6,9.609,9.609,0,0,0,0,15.218v.77c.075.005.392.008.57.008s.355,0,.43-.008v-.77A8.556,8.556,0,0,1,1.64,12a5.486,5.486,0,0,1,2.78-2.92c.01-.01.01-.01.02-.01a7.456,7.456,0,0,1,3.18-.63v-.88a7.456,7.456,0,0,1-3.18-.63" transform="translate(0 0)" fill="#444"/>
    </g>
  </g>
</svg>
