<?xml version="1.0" encoding="UTF-8"?>
<svg id="Layer_1" xmlns="http://www.w3.org/2000/svg" version="1.1" viewBox="0 0 23.77 17.94">
  <!-- Generator: Adobe Illustrator 30.0.0, SVG Export Plug-In . SVG Version: 2.1.1 Build 123)  -->
  <defs>
    <style>
      .st0 {
        fill: #444;
      }
    </style>
  </defs>
  <path class="st0" d="M23.77,4.09C21.27,1.67,17.99.23,14.51.02,14.23,0,13.95,0,13.66,0s-.57,0-.85.02c-3.48.2-6.76,1.64-9.26,4.07,2.5,2.42,5.79,3.87,9.26,4.07.12,0,.24,0,.35.01,0,0,0,0,0,0v1.12c-.13,0-.25,0-.38.02-.04,0-.07,0-.11.02-5.09.32-9.67,3.21-12.15,7.66-.11.19-.21.39-.31.57l-.22.38h1.15c.08-.15.16-.31.24-.46h0c2.34-4.19,6.65-6.89,11.44-7.16.04,0,.07,0,.11-.02.24-.01.47-.02.71-.02.28,0,.5-.22.5-.5v-1.61s0,0,0,0c.12,0,.23,0,.35,0,3.48-.2,6.76-1.64,9.26-4.07ZM13.66,7.19c-.27,0-.53,0-.79-.02-2.87-.17-5.6-1.24-7.82-3.07,2.21-1.83,4.95-2.9,7.82-3.07.26-.02.53-.02.79-.02s.53,0,.79.02c2.87.17,5.6,1.24,7.82,3.07-2.21,1.83-4.95,2.9-7.82,3.07-.26.01-.53.02-.79.02Z"/>
</svg>