<?xml version="1.0" encoding="UTF-8"?>
<svg id="Layer_1" xmlns="http://www.w3.org/2000/svg" version="1.1" viewBox="0 0 260.72 237.94">
  <!-- Generator: Adobe Illustrator 30.0.0, SVG Export Plug-In . SVG Version: 2.1.1 Build 123)  -->
  <defs>
    <style>
      .st0 {
        fill: #fff;
      }
    </style>
  </defs>
  <path class="st0" d="M5.59,108.08c.7-.04,1.4-.19,2.1-.46.7-.27,1.32-.66,1.86-1.16s.98-1.12,1.29-1.84c.31-.72.45-1.56.4-2.5-.05-.94-.27-1.75-.66-2.44-.39-.69-.88-1.26-1.47-1.7-.59-.44-1.25-.77-1.97-.96-.72-.2-1.43-.28-2.14-.24l-3.76.19.59,11.31,3.75-.19ZM4.69,97.84c.86-.04,1.62.05,2.27.28.65.23,1.19.55,1.64.96.44.41.78.88,1.01,1.42.23.54.36,1.1.39,1.69.03.59-.04,1.16-.22,1.72s-.46,1.06-.86,1.52c-.4.45-.91.83-1.53,1.12-.62.29-1.36.46-2.22.51l-2.24.12-.48-9.2,2.24-.12Z"/>
  <path class="st0" d="M13.41,102.29l.66,5.11,1.05-.13-.54-4.19c-.03-.25-.02-.52.03-.81.05-.29.16-.56.32-.82s.37-.49.64-.68c.27-.19.6-.31,1-.36.26-.03.47-.03.61,0l.07-1.06c-.23-.03-.49-.03-.79,0-.33.04-.62.12-.86.25-.25.12-.46.27-.64.44-.18.17-.32.36-.44.56-.11.2-.19.41-.24.62h-.03s-.18-1.38-.18-1.38l-1.03.13c.08.54.15.98.21,1.31.06.34.11.67.15,1Z"/>
  <path class="st0" d="M18.88,104.58c.28.43.63.79,1.03,1.07.4.28.85.47,1.36.58.5.1,1.03.1,1.57,0,.61-.12,1.15-.35,1.64-.69.48-.34.89-.83,1.22-1.47l-.93-.51c-.15.38-.4.73-.75,1.06-.35.33-.81.55-1.36.66-.37.07-.72.07-1.06,0-.34-.08-.65-.21-.94-.4s-.53-.43-.74-.73c-.21-.3-.36-.63-.47-.99l6.13-1.17-.09-.47c-.1-.5-.27-.96-.51-1.38-.24-.42-.54-.76-.91-1.03s-.78-.47-1.26-.58-.99-.12-1.55-.01c-.52.1-.99.29-1.41.57-.41.28-.75.62-1.02,1.03-.27.41-.45.87-.55,1.38-.1.51-.09,1.04.01,1.59.11.56.3,1.05.59,1.48ZM19.36,101.39c.09-.31.23-.6.42-.86.19-.27.44-.49.72-.68.29-.19.6-.32.94-.38.75-.14,1.38-.04,1.89.31.5.35.82.88.95,1.58l-4.97.95c-.06-.3-.04-.61.04-.92Z"/>
  <path class="st0" d="M29.65,97.56c1.24-.34,2.02.12,2.36,1.36l.05.19-.51.14c-.43.12-.9.27-1.41.45-.51.18-.97.42-1.38.71-.41.29-.73.64-.94,1.06-.21.42-.24.92-.08,1.51.1.35.25.64.46.86s.46.4.74.51c.28.12.58.18.9.18.32,0,.64-.03.96-.12.59-.16,1.05-.4,1.4-.72.35-.32.61-.77.77-1.33h.03c.05.19.12.39.19.59.07.2.15.39.23.55l.99-.27c-.08-.19-.18-.43-.29-.73-.11-.3-.2-.58-.28-.86l-.88-3.23c-.12-.44-.3-.8-.53-1.08s-.49-.49-.79-.64c-.29-.15-.62-.23-.97-.24-.35-.01-.7.03-1.05.12-1.36.37-2.28,1-2.77,1.88l.81.56c.47-.74,1.13-1.22,1.98-1.45ZM32.43,100.47c.09.32.12.63.11.94-.01.31-.08.59-.21.85-.13.26-.31.49-.55.69-.24.2-.54.35-.91.45-.21.06-.42.09-.63.1-.21,0-.42-.02-.61-.08-.19-.06-.36-.17-.51-.31s-.25-.33-.31-.57c-.1-.36-.05-.68.15-.95.2-.27.46-.51.79-.7.33-.19.68-.36,1.06-.49s.7-.23.95-.3l.52-.14.14.52Z"/>
  <path class="st0" d="M35.24,96.98l2.07,5.44.99-.38-1.37-3.59c-.24-.64-.34-1.17-.29-1.6.05-.43.15-.78.31-1.04s.34-.46.54-.58c.2-.12.33-.19.39-.22.68-.26,1.21-.25,1.61.04.39.28.73.78.99,1.49l1.55,4.08.99-.38-1.42-3.72c-.12-.33-.21-.66-.26-.99s-.04-.65.03-.94c.06-.3.19-.57.39-.81.19-.24.48-.43.84-.57.68-.26,1.21-.25,1.61.04.39.28.72.78.99,1.49l1.55,4.08.99-.38-1.69-4.44c-.33-.88-.81-1.47-1.41-1.78-.61-.31-1.36-.29-2.26.05-.47.18-.87.48-1.21.9s-.52.9-.55,1.42c-.23-.25-.47-.44-.72-.56-.25-.12-.49-.2-.73-.23s-.47-.02-.7.02c-.23.04-.44.1-.63.17-.42.16-.8.42-1.14.79-.34.37-.56.81-.64,1.31h-.03s-.4-1.05-.4-1.05l-1.06.4c.12.25.23.5.35.76s.22.51.32.77Z"/>
  <path class="st0" d="M54.13,87.74c1.12-.61,2-.35,2.61.78l.09.17-.46.25c-.39.21-.82.47-1.27.76-.45.29-.85.63-1.18,1.01-.34.38-.56.79-.67,1.25-.11.46-.02.95.27,1.48.17.32.39.56.64.73.26.17.53.28.83.33.3.05.61.04.92-.03s.62-.18.91-.34c.53-.29.93-.63,1.2-1.03.27-.39.41-.88.45-1.47l.03-.02c.1.18.2.36.32.54.12.18.23.34.35.49l.9-.49c-.12-.16-.27-.38-.45-.64-.17-.26-.33-.52-.47-.77l-1.6-2.94c-.22-.4-.47-.71-.76-.93s-.59-.37-.91-.44c-.32-.07-.65-.08-1-.01-.35.07-.68.19-1,.36-1.24.67-1.99,1.5-2.26,2.47l.92.35c.29-.83.82-1.45,1.59-1.87ZM57.25,89.45l.26.48c.16.29.27.59.33.89.06.3.06.59,0,.88-.06.28-.19.55-.38.8-.19.25-.45.46-.79.65-.19.1-.38.18-.59.24-.21.06-.41.08-.61.06-.2-.02-.39-.08-.56-.18-.17-.11-.32-.27-.44-.48-.18-.33-.2-.65-.08-.96.13-.31.33-.6.6-.87.27-.27.58-.5.92-.72.34-.21.63-.39.86-.51l.48-.26Z"/>
  <path class="st0" d="M67.43,87.51l-.73-1.01.03-.02c.29.11.58.17.88.18s.58-.01.86-.07.54-.14.79-.25c.25-.12.48-.24.68-.39.48-.34.85-.74,1.13-1.18.28-.44.46-.91.54-1.4.08-.49.06-.99-.06-1.49-.12-.5-.34-.99-.67-1.45-.33-.46-.72-.83-1.16-1.1s-.91-.45-1.4-.53c-.49-.08-.99-.06-1.5.06-.51.12-1,.36-1.48.7-.2.14-.39.32-.58.52-.19.2-.35.43-.49.67-.14.25-.25.51-.34.79-.08.28-.12.58-.11.89l-.03.02-3.42-4.75-.86.62,7.06,9.82.86-.62ZM65.21,84.5c-.24-.34-.41-.7-.5-1.08-.09-.38-.11-.76-.04-1.13.06-.37.19-.73.4-1.06s.48-.63.84-.89c.36-.25.72-.42,1.09-.5.37-.08.74-.08,1.09,0,.35.07.69.22,1.01.43.32.22.6.49.84.83.24.34.42.69.52,1.07.1.37.13.74.09,1.1s-.16.7-.35,1.03c-.19.33-.46.62-.82.88-.36.26-.73.43-1.11.51s-.76.1-1.14.04c-.37-.06-.72-.19-1.06-.4-.33-.21-.62-.48-.86-.82Z"/>
  <path class="st0" d="M68.74,74.27c.22.01.4-.05.55-.17.15-.12.24-.29.27-.5.03-.21-.02-.41-.16-.58-.14-.17-.32-.27-.54-.28-.22-.01-.4.04-.55.17-.15.12-.24.29-.27.5s.02.41.16.58c.14.17.32.27.54.28Z"/>
  <rect class="st0" x="72.47" y="74.89" width="1.06" height="7.49" transform="translate(-33.28 63.92) rotate(-39.25)"/>
  <path class="st0" d="M72.29,74.38l.64.72,1.18-1.05,3.13,3.53c.28.31.54.52.8.64.26.11.5.17.74.16.23,0,.45-.07.65-.17.2-.1.37-.23.53-.36.41-.37.71-.75.88-1.15l-.68-.7c-.06.17-.15.34-.26.51-.11.17-.23.31-.37.43-.12.11-.24.19-.37.25-.12.06-.25.09-.39.08-.14,0-.28-.06-.44-.16s-.33-.25-.51-.46l-2.93-3.3,1.62-1.43-.64-.72-1.62,1.43-1.4-1.58-.79.7,1.4,1.58-1.18,1.05Z"/>
  <path class="st0" d="M52.09,141.07c-16.09-7.74-34.02-11.83-51.87-11.83H.09v1h.13c17.7,0,35.49,4.06,51.44,11.73,37.12,17.57,63.36,55.24,66.86,95.97l1-.09c-3.53-41.08-29.99-79.07-67.43-96.79Z"/>
  <path class="st0" d="M208.63,141.07c-37.43,17.72-63.9,55.71-67.43,96.79l1,.09c3.5-40.73,29.74-78.4,66.86-95.97,15.95-7.68,33.73-11.73,51.44-11.73h.13v-1h-.13c-17.85,0-35.79,4.09-51.87,11.83Z"/>
  <path class="st0" d="M208.63,96.87c16.09,7.74,34.02,11.83,51.87,11.83h.13v-1h-.13c-17.7,0-35.49-4.06-51.44-11.73C171.94,78.4,145.69,40.73,142.2,0l-1,.09c3.53,41.08,29.99,79.07,67.43,96.79Z"/>
  <path class="st0" d="M85.64,71.36l.72.69C105.46,52.16,117.24,26.6,119.52.08l-1-.09c-2.26,26.29-13.94,51.63-32.88,71.37Z"/>
</svg>