<?xml version="1.0" encoding="UTF-8"?>
<svg id="Layer_1" xmlns="http://www.w3.org/2000/svg" version="1.1" viewBox="0 0 19.61 17.94">
  <!-- Generator: Adobe Illustrator 30.0.0, SVG Export Plug-In . SVG Version: 2.1.1 Build 123)  -->
  <defs>
    <style>
      .st0 {
        fill: #444;
      }
    </style>
  </defs>
  <path class="st0" d="M10.66,0h-1.7c-.44,4.62-4.32,8.15-8.96,8.15v1.63c4.64,0,8.53,3.54,8.96,8.16h1.7c.43-4.62,4.31-8.16,8.96-8.16v-1.62C14.97,8.16,11.09,4.62,10.66,0ZM17.66,8.93s0,.08,0,.08h0s0,0,0,0c-1.79.38-3.44,1.24-4.77,2.44-1.51,1.42-2.59,3.31-3.04,5.38,0,0-.08,0-.08,0-.45-2.07-1.53-3.95-3.04-5.38-1.33-1.2-2.98-2.06-4.77-2.44h0s0,0,0,0c0,0,0-.08,0-.08h0s0,0,0,0c1.79-.38,3.44-1.24,4.77-2.44,1.51-1.42,2.59-3.31,3.04-5.38,0,0,.08,0,.08,0,.45,2.07,1.53,3.95,3.04,5.38,1.33,1.2,2.98,2.06,4.77,2.44h0s0,0,0,0Z"/>
</svg>