<svg xmlns="http://www.w3.org/2000/svg" width="181.51" height="18" viewBox="0 0 181.51 18">
  <g id="Group_1895" data-name="Group 1895" transform="translate(-869.246 -50)">
    <path id="Path_1897" data-name="Path 1897" d="M13.541,9a9.688,9.688,0,0,1,.689-3.726,8.179,8.179,0,0,1,1.924-2.843,8.479,8.479,0,0,1,2.927-1.8,11.206,11.206,0,0,1,7.4,0,8.493,8.493,0,0,1,2.928,1.8,8.19,8.19,0,0,1,1.923,2.843A9.669,9.669,0,0,1,32.024,9a9.669,9.669,0,0,1-.689,3.726,8.177,8.177,0,0,1-1.923,2.842,8.465,8.465,0,0,1-2.928,1.8,11.206,11.206,0,0,1-7.4,0,8.451,8.451,0,0,1-2.927-1.8,8.165,8.165,0,0,1-1.924-2.842A9.688,9.688,0,0,1,13.541,9M17.46,9a6.28,6.28,0,0,0,.375,2.214,5.072,5.072,0,0,0,1.077,1.742A4.9,4.9,0,0,0,20.593,14.1a6.038,6.038,0,0,0,4.379,0,4.917,4.917,0,0,0,1.682-1.149,5.085,5.085,0,0,0,1.076-1.742A6.28,6.28,0,0,0,28.1,9a6.316,6.316,0,0,0-.375-2.2,5.062,5.062,0,0,0-1.076-1.754,4.945,4.945,0,0,0-1.682-1.149,6.038,6.038,0,0,0-4.379,0,4.931,4.931,0,0,0-1.681,1.149A5.049,5.049,0,0,0,17.835,6.8,6.316,6.316,0,0,0,17.46,9" transform="translate(869.246 50)" fill="#444"/>
    <path id="Path_1898" data-name="Path 1898" d="M49.584,10.96a8.267,8.267,0,0,1-.46,2.806,6.166,6.166,0,0,1-1.367,2.226,6.267,6.267,0,0,1-2.262,1.476,9.491,9.491,0,0,1-6.266,0,6.267,6.267,0,0,1-2.262-1.476A6.166,6.166,0,0,1,35.6,13.766a8.267,8.267,0,0,1-.46-2.806V.436h3.775V10.815a4.16,4.16,0,0,0,.254,1.476,3.524,3.524,0,0,0,.713,1.173,3.229,3.229,0,0,0,1.1.774,3.446,3.446,0,0,0,1.391.278,3.361,3.361,0,0,0,1.379-.278,3.27,3.27,0,0,0,1.089-.774,3.542,3.542,0,0,0,.714-1.173,4.182,4.182,0,0,0,.254-1.476V.436h3.774Z" transform="translate(869.246 50)" fill="#444"/>
    <path id="Path_1899" data-name="Path 1899" d="M53.695.435h6.629A11.726,11.726,0,0,1,62.8.689a5.9,5.9,0,0,1,2.056.847,4.228,4.228,0,0,1,1.4,1.6,5.4,5.4,0,0,1,.521,2.5,5.029,5.029,0,0,1-.944,3.085,4.246,4.246,0,0,1-2.758,1.608l4.355,7.234H62.912l-3.58-6.846H57.469v6.846H53.695Zm3.774,7.089h2.226q.507,0,1.076-.036A3.375,3.375,0,0,0,61.8,7.27a1.777,1.777,0,0,0,.762-.569,1.73,1.73,0,0,0,.3-1.088A1.814,1.814,0,0,0,62.6,4.572a1.785,1.785,0,0,0-.677-.592,3.032,3.032,0,0,0-.944-.279,7.762,7.762,0,0,0-1.04-.072H57.469Z" transform="translate(869.246 50)" fill="#444"/>
    <path id="Path_1900" data-name="Path 1900" d="M73.584,3.774H68.7V.435H82.245V3.774H77.358v13.79H73.584Z" transform="translate(869.246 50)" fill="#444"/>
    <path id="Path_1901" data-name="Path 1901" d="M84.666.435H88.44V6.822h7.331V.435h3.774V17.564H95.771v-7.4H88.44v7.4H84.666Z" transform="translate(869.246 50)" fill="#444"/>
    <path id="Path_1902" data-name="Path 1902" d="M110.529.435h4.113l2.734,10.984h.048L121,.435h3.508l3.556,11.274h.049L131,.435h3.822l-5.008,17.129h-3.363L122.674,5.709h-.048l-3.775,11.855H115.61Z" transform="translate(869.246 50)" fill="#444"/>
    <rect id="Rectangle_877" data-name="Rectangle 877" width="3.774" height="17.129" transform="translate(1006.365 50.435)" fill="#444"/>
    <path id="Path_1903" data-name="Path 1903" d="M145.036.435h5.129l7.282,11.9h.049V.435h3.774V17.564h-4.936L148.859,5.37h-.049V17.564h-3.774Z" transform="translate(869.246 50)" fill="#444"/>
    <path id="Path_1904" data-name="Path 1904" d="M165.493.435h3.774V7.548L175.92.435h4.936L173.235,8.4l8.274,9.169h-5.274l-6.968-8.129v8.129h-3.774Z" transform="translate(869.246 50)" fill="#444"/>
    <path id="Path_1905" data-name="Path 1905" d="M0,.436V17.565H3.775V10.888h7.137V7.4H3.775V3.92h7.717V.436Z" transform="translate(869.246 50)" fill="#444"/>
  </g>
</svg>
