<?xml version="1.0" encoding="UTF-8"?>
<svg id="Layer_1" xmlns="http://www.w3.org/2000/svg" version="1.1" viewBox="0 0 20.17 17.96">
  <!-- Generator: Adobe Illustrator 30.0.0, SVG Export Plug-In . SVG Version: 2.1.1 Build 123)  -->
  <defs>
    <style>
      .st0 {
        fill: #444;
      }
    </style>
  </defs>
  <path class="st0" d="M10.93,9.82c-.28-.02-.56-.02-.85-.02s-.57,0-.85.02c-3.47.2-6.74,1.64-9.24,4.06,2.49,2.42,5.77,3.86,9.24,4.06.28.02.56.02.85.02s.57,0,.85-.02c3.47-.2,6.74-1.64,9.24-4.06-2.49-2.42-5.77-3.86-9.24-4.06ZM10.87,16.93c-.26.01-.53.02-.79.02s-.53,0-.79-.02c-2.86-.17-5.59-1.24-7.79-3.06,2.21-1.82,4.94-2.89,7.79-3.06.26-.02.53-.02.79-.02s.53,0,.79.02c2.86.17,5.59,1.24,7.79,3.06-2.21,1.82-4.94,2.89-7.79,3.06Z"/>
  <path class="st0" d="M10.08,8.16c2.25,0,4.08-1.83,4.08-4.08h0C14.16,1.83,12.34,0,10.08,0h0C7.83,0,6,1.83,6,4.08s1.83,4.08,4.08,4.08ZM7,4.08c0-1.7,1.38-3.08,3.08-3.08,1.7,0,3.08,1.38,3.08,3.08s-1.38,3.08-3.08,3.08-3.08-1.38-3.08-3.08h0Z"/>
</svg>